PathFileType	4	(X/Y/Z)	s04c0102.trc
DataRate	CameraRate	NumFrames	NumMarkers	Units	OrigDataRate	OrigDataStartFrame	OrigNumFrames
200	200	7	50	mm	200	0	2000
Frame#	Time	racr			lacr			c7			jug			rlel			rdr			llel			ldr			s2			lic			ric			lasi			rasi			rpsi			lpsi			rgt			lgt			rth1			rth2			rth3			rth4			rlfc			rmfc			rsh1			rsh2			rsh3			rsh4			rlmal			rmmal			rcal			rtoe			rmt5			lth1			lth2			lth4			lth3			llfc			lmfc			lsh1			lsh2			lsh3			lsh4			llmal			lmmal			lcal			ltoe			lmt5			SBIKE			LBIKE			RBIKE			
		X1	Y1	Z1	X2	Y2	Z2	X3	Y3	Z3	X4	Y4	Z4	X5	Y5	Z5	X6	Y6	Z6	X7	Y7	Z7	X8	Y8	Z8	X9	Y9	Z9	X10	Y10	Z10	X11	Y11	Z11	X12	Y12	Z12	X13	Y13	Z13	X14	Y14	Z14	X15	Y15	Z15	X16	Y16	Z16	X17	Y17	Z17	X18	Y18	Z18	X19	Y19	Z19	X20	Y20	Z20	X21	Y21	Z21	X22	Y22	Z22	X23	Y23	Z23	X24	Y24	Z24	X25	Y25	Z25	X26	Y26	Z26	X27	Y27	Z27	X28	Y28	Z28	X29	Y29	Z29	X30	Y30	Z30	X31	Y31	Z31	X32	Y32	Z32	X33	Y33	Z33	X34	Y34	Z34	X35	Y35	Z35	X36	Y36	Z36	X37	Y37	Z37	X38	Y38	Z38	X39	Y39	Z39	X40	Y40	Z40	X41	Y41	Z41	X42	Y42	Z42	X43	Y43	Z43	X44	Y44	Z44	X45	Y45	Z45	X46	Y46	Z46	X47	Y47	Z47	X48	Y48	Z48	X49	Y49	Z49	X50	Y50	Z50	
0	0.0000	488.804764	1420.365873	-141.317772	497.194284	1388.202151	-439.940134	481.371060	1455.138952	-295.232022	481.941984	1309.082432	-285.929019	493.951232	1116.917067	-33.333715	694.872717	910.542549	-116.710984	468.045687	1107.973158	-536.084441	685.501251	911.433525	-478.729114	-61.685804	1185.045555	-287.411662	96.063357	1187.564298	-439.661521	101.229593	1167.060305	-126.483483	0.000000	0.000000	-0.000000	139.857994	1109.348859	-168.058563	-25.081601	1221.960021	-242.215259	-29.799408	1232.222427	-316.709765	44.000789	1107.979258	-114.131846	53.120056	1125.477062	-485.461164	122.134899	957.735149	-95.963851	175.990259	889.451417	-109.898237	192.463204	805.088357	-115.939534	204.726328	904.568787	-128.415556	234.156819	667.219355	-145.409254	200.236632	649.580339	-254.025778	171.855380	557.037230	-113.949784	155.027973	468.834336	-124.967830	94.402817	405.132910	-126.166695	180.322388	458.043526	-152.669315	37.487165	263.100147	-129.999053	54.285239	267.768114	-216.838834	-38.212873	233.919190	-168.325566	259.618557	191.935036	-163.108399	191.524719	174.652999	-106.635931	117.502238	1073.138044	-488.895831	203.350165	1064.875444	-491.655069	216.350245	1095.338191	-475.019803	275.767441	1013.200330	-501.338349	413.125828	930.171150	-479.140580	447.117774	912.429310	-369.815776	372.235490	822.960196	-497.312048	347.438124	742.324331	-472.919465	283.964167	680.272449	-467.320809	371.836765	733.275363	-443.806220	202.787852	559.139612	-451.731476	203.387912	566.334931	-363.350884	120.350345	543.845519	-405.400480	418.458207	502.464723	-420.773513	342.795653	471.795312	-479.596476	-185.979215	933.935134	-286.633936	-17.475785	79.312728	-485.632668	-17.508149	79.315765	-84.865643	
1	0.0050	488.822443	1420.337098	-141.333947	497.235344	1388.164844	-439.945922	481.368689	1455.095290	-295.229033	481.917555	1309.041243	-285.904789	493.949195	1116.910711	-33.334382	694.863383	910.541603	-116.708637	468.011901	1107.917181	-536.024127	685.473302	911.352163	-478.640153	-61.671224	1185.059379	-287.465581	96.055914	1187.551086	-439.701190	101.243585	1167.053286	-126.535060	0.000000	0.000000	-0.000000	139.884555	1109.338235	-168.096348	-25.072524	1221.995815	-242.250677	-29.760597	1232.229553	-316.762507	44.005069	1107.992434	-114.179256	53.119947	1125.463373	-485.509408	122.138444	957.759843	-96.003313	175.972831	889.469517	-109.937906	192.461044	805.104533	-115.972245	204.750485	904.525770	-128.494230	234.156434	667.224711	-145.433876	200.220102	649.605061	-254.039583	171.856274	557.090035	-113.972512	155.016162	468.854029	-124.974205	94.362914	405.172646	-126.159491	180.335002	458.069536	-152.685047	37.438608	263.151269	-130.003323	54.255979	267.811057	-216.859632	-38.240717	233.984360	-168.327933	259.584777	191.924021	-163.122317	191.480333	174.663217	-106.651600	117.512494	1073.126279	-488.918116	203.367369	1064.836660	-491.661786	216.360680	1095.327733	-475.035484	275.772300	1013.181347	-501.333756	413.129190	930.140842	-479.115094	447.089320	912.406335	-369.770826	372.262031	822.913436	-497.289166	347.466069	742.286765	-472.902972	284.004850	680.227998	-467.308112	371.847742	733.236959	-443.788485	202.819763	559.104378	-451.718733	203.410409	566.276475	-363.335639	120.401315	543.788564	-405.391831	418.502195	502.457982	-420.784975	342.840519	471.781764	-479.598716	-185.976220	933.936071	-286.641639	-17.489713	79.317522	-485.606673	-17.519037	79.318788	-84.870210	
2	0.0100	488.821468	1420.306411	-141.356350	497.279872	1388.130829	-439.998937	481.367431	1455.077047	-295.186347	481.954541	1309.031420	-285.946738	493.942678	1116.912372	-33.328654	694.876984	910.527901	-116.711010	468.003019	1107.860672	-535.976506	685.444362	911.299429	-478.560391	-61.672638	1185.071823	-287.503655	96.043187	1187.533333	-439.714630	101.247989	1167.083003	-126.568461	0.000000	0.000000	-0.000000	139.893200	1109.361224	-168.112061	-25.034145	1221.992885	-242.307031	-29.727324	1232.238121	-316.816999	44.000906	1108.042041	-114.203817	53.132620	1125.445759	-485.540267	122.124547	957.789908	-96.019258	175.944305	889.492429	-109.940710	192.460542	805.134653	-115.988705	204.736901	904.560542	-128.505047	234.138590	667.247554	-145.437314	200.208698	649.635323	-254.059276	171.834838	557.114606	-113.988630	154.991210	468.878149	-124.973313	94.359181	405.200412	-126.173918	180.310473	458.082236	-152.694049	37.404367	263.180794	-130.009290	54.247353	267.869885	-216.860343	-38.285502	234.024501	-168.320133	259.539230	191.953985	-163.122682	191.452728	174.688836	-106.646994	117.524310	1073.105836	-488.922471	203.376767	1064.814133	-491.666868	216.362105	1095.307645	-475.040760	275.782149	1013.148808	-501.310843	413.149477	930.113665	-479.060101	447.073909	912.401441	-369.715441	372.281096	822.894789	-497.254064	347.494897	742.244526	-472.856308	284.028344	680.190814	-467.281021	371.883917	733.206764	-443.749644	202.861866	559.061852	-451.708149	203.425871	566.239813	-363.334119	120.435586	543.740254	-405.394223	418.537950	502.447980	-420.786719	342.885263	471.775514	-479.605231	-185.969661	933.942185	-286.640843	-17.498540	79.325987	-485.602280	-17.513832	79.315159	-84.855339	
3	0.0150	488.822286	1420.268397	-141.360238	497.285854	1388.086334	-440.022350	481.345783	1455.059009	-295.165417	481.968002	1309.027867	-285.975895	493.934575	1116.899524	-33.321641	694.874120	910.542312	-116.715167	468.173731	1107.691963	-535.601991	685.451978	911.278110	-478.533620	-61.809378	1184.988462	-287.596445	96.080330	1187.531465	-439.773710	101.444327	1167.004893	-126.576658	0.000000	0.000000	-0.000000	139.838521	1109.620226	-168.142575	-25.062769	1222.031515	-242.321441	-29.357440	1232.987505	-317.258180	43.996480	1108.069834	-114.225629	53.136602	1125.440348	-485.571458	122.101648	957.822936	-96.206261	176.455927	889.094706	-109.440357	192.426951	805.167467	-115.999864	204.744855	904.588655	-128.544393	234.163096	667.261227	-145.451280	200.401232	649.541916	-253.986020	171.825653	557.154761	-113.970280	154.142754	467.940305	-124.795802	94.344731	405.240677	-126.170621	180.163065	457.753772	-152.996717	37.373212	263.233905	-129.865407	54.145152	267.941836	-216.858707	-38.231075	233.704588	-167.930740	259.523060	191.953523	-163.126492	191.398568	174.715617	-106.643287	117.543559	1073.089984	-488.930555	203.387070	1064.791282	-491.649927	216.160060	1095.474124	-475.398999	275.800258	1013.123851	-501.282227	413.074345	930.153647	-478.994113	447.086059	912.380861	-369.678768	372.311576	822.875768	-497.214896	347.547375	742.240812	-472.963415	284.044010	680.158493	-467.246100	371.951923	733.129206	-443.874840	202.950465	558.857556	-451.343278	203.308444	566.274839	-362.968972	120.464244	543.688474	-405.377170	418.578773	502.439220	-420.791559	343.002163	471.671627	-479.504810	-186.038598	933.937769	-286.942598	-17.499365	79.315615	-485.606060	-17.519708	79.324085	-84.885846	
4	0.0200	488.826710	1420.278541	-141.424940	497.223639	1388.005757	-440.088846	481.265769	1454.881706	-294.925958	481.954805	1309.056220	-286.020242	493.933716	1116.951432	-33.253809	694.857438	910.498856	-116.715066	468.127199	1107.635735	-535.589023	685.442147	911.359809	-478.582577	-61.775092	1185.041398	-287.543486	96.031802	1187.452096	-439.709880	101.481662	1167.053062	-126.880539	0.000000	0.000000	-0.000000	139.478536	1109.400431	-168.513590	-25.091172	1222.360005	-242.377859	-29.317649	1233.098036	-317.375684	44.056113	1108.207660	-114.215586	53.204821	1125.415745	-485.492227	122.123116	957.833371	-96.229820	176.422367	889.089339	-109.468178	192.384595	805.205230	-116.085612	204.680540	904.626746	-128.595579	234.157563	667.292285	-145.433217	200.341722	649.574636	-254.051292	171.819134	557.213549	-114.006968	154.075523	468.003881	-125.189070	94.274339	405.243518	-126.214957	180.083562	457.734042	-153.042491	37.426377	263.244856	-129.739176	54.275757	268.082921	-216.985168	-38.161865	233.833022	-167.937665	259.485083	191.965560	-163.209866	191.392308	174.688121	-106.903530	117.564741	1073.080658	-488.896766	203.426144	1064.796169	-491.612086	216.179968	1095.454035	-475.366865	275.828592	1013.087229	-501.221301	413.070300	930.147774	-478.952942	447.127751	912.392586	-369.631383	372.305520	822.877132	-497.194492	347.577976	742.219146	-472.921132	284.077282	680.137756	-467.216823	371.995352	733.104044	-443.819820	202.981743	558.825410	-451.332389	203.436730	566.224360	-362.936357	120.438433	543.681175	-405.520617	418.596260	502.418091	-420.757173	343.042338	471.643871	-479.510697	-186.011996	933.987066	-286.822163	-17.449611	79.304742	-485.456697	-17.481457	79.333016	-84.838583	
5	0.0250	488.139589	1420.301279	-141.769349	497.224065	1387.928676	-440.139914	481.272513	1454.854175	-294.902806	481.946171	1309.044140	-286.038624	493.919207	1116.944187	-33.247761	694.865103	910.484307	-116.744955	468.108017	1107.559598	-535.539470	685.428748	911.341984	-478.531266	-61.762292	1185.054787	-287.555822	96.059814	1187.435140	-439.746480	101.469064	1167.083069	-126.976030	0.000000	0.000000	-0.000000	139.452007	1109.431426	-168.561320	-24.989711	1222.530358	-242.494762	-29.280821	1233.127389	-317.455801	44.061595	1108.259939	-114.222420	53.208273	1125.385074	-485.494586	122.092971	957.915410	-96.219905	176.434112	889.119251	-109.477187	192.380452	805.250021	-116.109798	204.675199	904.652268	-128.585480	234.157048	667.340462	-145.408227	200.331194	649.609110	-254.061477	171.816769	557.258450	-114.017925	154.069196	468.030211	-125.227119	94.261097	405.262531	-126.228983	180.085475	457.751593	-153.072728	37.412417	263.274181	-129.727622	54.302061	268.146922	-217.026940	-38.192629	233.895329	-167.943115	259.429440	191.980675	-163.213895	191.354662	174.687580	-106.942706	117.579742	1073.064912	-488.896696	203.429433	1064.769348	-491.600047	216.205675	1095.434494	-475.358236	275.846056	1013.056962	-501.211466	413.075382	930.132306	-478.912738	447.120333	912.379878	-369.576070	372.328906	822.864418	-497.163076	347.585075	742.203028	-472.883941	284.086637	680.121515	-467.207848	372.018418	733.070669	-443.772004	203.014548	558.802540	-451.326306	203.465024	566.184298	-362.919385	120.449769	543.634665	-405.525382	418.621224	502.408775	-420.753143	343.061287	471.650794	-479.520442	-186.004875	933.978356	-286.811388	-17.458507	79.298442	-485.434858	-17.464791	79.329048	-84.827487	
6	0.0300	488.853712	1420.250599	-141.470887	497.289298	1387.921827	-440.206593	481.254494	1454.844842	-294.897728	481.903137	1309.109604	-286.045373	493.951934	1116.950899	-33.201003	694.876549	910.494205	-116.725398	468.070899	1107.489745	-535.485381	685.448763	911.345654	-478.540023	-61.762338	1185.068888	-287.588522	96.071003	1187.434150	-439.766246	101.471623	1167.112542	-127.018716	0.000000	0.000000	-0.000000	139.462383	1109.440484	-168.578184	-25.004680	1222.564044	-242.532653	-29.269829	1233.138559	-317.507351	44.041277	1108.283596	-114.252436	53.232702	1125.357152	-485.529625	122.085373	957.925043	-96.248783	176.423848	889.152697	-109.477329	192.393004	805.265889	-116.100504	204.678031	904.675557	-128.596935	234.180215	667.358578	-145.404425	200.337127	649.627808	-254.055132	171.824382	557.286649	-114.008554	154.072313	468.068339	-125.237890	94.233600	405.292444	-126.209818	180.101511	457.784984	-153.058306	37.396125	263.298611	-129.717057	54.285086	268.184077	-217.025795	-38.215981	233.943954	-167.934086	259.426729	191.979457	-163.204319	191.330816	174.692982	-106.972037	117.596341	1073.038491	-488.882062	203.435656	1064.736236	-491.583677	216.209306	1095.416606	-475.363239	275.848381	1013.033658	-501.177736	413.073060	930.139675	-478.857776	447.116581	912.366344	-369.518595	372.334138	822.860937	-497.130391	347.585208	742.185843	-472.839662	284.115297	680.104940	-467.187040	372.021972	733.048421	-443.736949	203.025813	558.782015	-451.327591	203.453357	566.149180	-362.935226	120.457884	543.606775	-405.548585	418.652284	502.395860	-420.762956	343.103908	471.638574	-479.519122	-186.006957	933.979743	-286.812658	-17.460028	79.299445	-485.411713	-17.457106	79.319598	-84.828429	
